<svg version="1.1" id="Layer_1" xmlns="http://www.w3.org/2000/svg" xmlns:xlink="http://www.w3.org/1999/xlink" x="0px" y="0px"
	 width="100%" viewBox="0 0 500 500" enable-background="new 0 0 500 500" xml:space="preserve">
<path fill="#000000" opacity="1.000000" stroke="none" 
	d="
M222.000000,501.000000 
	C149.333344,501.000000 77.166649,500.968994 5.000222,501.096375 
	C1.575816,501.102417 0.903037,500.423798 0.905301,497.000000 
	C1.013779,333.000092 1.013772,169.000122 0.905333,5.000233 
	C0.903070,1.576903 1.575835,0.903023 4.999890,0.905288 
	C168.999771,1.013774 332.999725,1.013761 496.999634,0.905352 
	C500.422668,0.903090 501.096985,1.575453 501.094727,4.999770 
	C500.986206,168.999664 500.986237,332.999634 501.094604,496.999542 
	C501.096893,500.422363 500.425262,501.100281 497.000275,501.095795 
	C405.500305,500.975403 314.000122,501.000000 222.000000,501.000000 
z"/>
<path fill="#FFFFFF" opacity="1.000000" stroke="none" 
	d="
M203.966980,202.494263 
	C207.178497,205.503769 207.562988,209.793945 210.526855,212.455765 
	C211.946213,210.116959 213.960632,207.766296 214.881592,205.045502 
	C216.157593,201.275803 218.937805,201.670837 221.509384,202.100784 
	C224.617416,202.620377 222.841507,205.392502 222.897110,207.005814 
	C223.124313,213.598282 224.531693,220.105576 224.076935,226.756836 
	C223.888443,229.513626 223.477798,231.054459 220.211624,231.088654 
	C216.873016,231.123596 215.734512,229.873642 215.960587,226.670074 
	C216.151978,223.958130 216.000046,221.221954 216.000046,217.825470 
	C210.905289,226.487122 210.807419,226.477127 203.999680,216.194366 
	C203.999680,221.004532 203.812302,224.655624 204.059662,228.277023 
	C204.253433,231.113663 202.715591,230.963913 200.726639,231.059799 
	C198.489517,231.167648 197.922272,230.376816 197.954239,228.227432 
	C198.070740,220.398575 198.041687,212.566650 197.985794,204.736450 
	C197.947739,199.404190 201.790924,203.021973 203.966980,202.494263 
z"/>
<path fill="#FFFFFF" opacity="1.000000" stroke="none" 
	d="
M163.001984,204.186829 
	C164.105347,200.344254 166.880432,202.127518 168.768860,202.166153 
	C171.107971,202.214005 169.910065,204.540298 169.934006,205.769043 
	C170.070160,212.758118 170.078613,219.752869 169.933517,226.741592 
	C169.904587,228.134766 171.230438,230.395691 168.794952,230.896622 
	C166.162399,231.438065 163.561630,231.215240 162.003616,228.283463 
	C160.051041,224.609222 157.896042,221.042557 154.999741,215.981384 
	C154.999741,221.030975 154.957703,224.664139 155.018631,228.295563 
	C155.046371,229.948837 154.996475,231.278259 152.729904,231.022614 
	C150.842590,230.809738 148.164825,231.614746 148.090683,228.690048 
	C147.884018,220.538406 147.974152,212.377670 148.058350,204.221664 
	C148.074280,202.677963 149.262695,201.916672 150.805771,202.015335 
	C152.668915,202.134460 154.709793,201.354370 155.998367,203.751846 
	C157.962463,207.406265 160.227356,210.899017 163.000259,215.519806 
	C163.000259,211.269852 163.000259,207.963882 163.001984,204.186829 
z"/>
<path fill="#FFFFFF" opacity="1.000000" stroke="none" 
	d="
M236.509705,193.993195 
	C231.990509,192.160431 231.217697,187.986008 229.000000,184.492004 
	C229.000000,186.202667 228.943130,187.915680 229.013306,189.623459 
	C229.119247,192.201828 229.430023,194.193268 225.397339,194.184845 
	C221.106979,194.175873 222.020035,191.726517 222.010452,189.414886 
	C221.981506,182.429825 222.144058,175.440155 221.930923,168.461472 
	C221.842682,165.572556 222.767838,164.687195 225.542694,164.954529 
	C227.849686,165.176758 230.197266,165.063919 232.522995,164.985260 
	C236.160461,164.862244 239.413864,165.434082 240.981049,169.289536 
	C242.725494,173.581055 242.520493,177.482285 238.757782,180.766815 
	C236.181290,183.015900 236.246292,186.419525 239.212692,187.520142 
	C241.674210,188.433441 243.779343,189.090164 242.899872,192.054916 
	C241.957687,195.231186 239.019821,193.620224 236.509705,193.993195 
z"/>
<path fill="#FFFFFF" opacity="1.000000" stroke="none" 
	d="
M180.000000,225.981293 
	C179.668839,228.379608 181.334961,231.170258 177.081085,231.120270 
	C173.098648,231.073471 173.131744,229.010910 172.917435,226.054764 
	C172.471588,219.905655 173.760254,213.911804 174.079742,207.838867 
	C174.354630,202.613586 181.133240,199.466263 187.582977,201.210068 
	C192.832657,202.629395 195.457672,206.497986 194.510300,213.758255 
	C193.904312,218.402420 194.279175,222.960968 194.053482,227.549850 
	C193.945786,229.739243 194.038269,231.325470 190.980408,231.089096 
	C188.420929,230.891251 186.728851,230.446091 186.991989,227.450867 
	C187.050003,226.790436 186.988159,226.120285 187.002136,225.455048 
	C187.053833,222.994446 187.659668,220.808823 183.474121,220.803131 
	C179.200439,220.797333 180.012863,223.124863 180.000000,225.981293 
z"/>
<path fill="#FFFFFF" opacity="1.000000" stroke="none" 
	d="
M178.983673,165.517334 
	C189.168091,164.053223 195.027008,164.271866 194.998627,179.821136 
	C194.987930,185.681870 195.401398,191.594299 188.255936,194.314240 
	C180.885193,197.119919 173.889221,192.821106 174.063568,185.010590 
	C174.176239,179.962723 173.192322,174.870621 174.889404,169.833328 
	C175.610718,167.692352 176.660583,166.440018 178.983673,165.517334 
z"/>
<path fill="#FFFFFF" opacity="1.000000" stroke="none" 
	d="
M204.679810,194.892792 
	C199.825500,192.458450 197.549927,189.064362 197.919342,183.750656 
	C198.287338,178.457382 198.165833,173.111237 197.931152,167.802765 
	C197.811646,165.099380 199.013031,164.939682 201.142792,164.940933 
	C203.489670,164.942322 204.149902,165.680374 204.487488,168.124588 
	C205.209854,173.354782 204.330261,178.576111 204.953018,183.782074 
	C205.194336,185.799469 204.823059,187.887604 207.787949,188.010193 
	C211.035172,188.144470 210.496094,185.829285 211.121429,183.735458 
	C212.639572,178.652206 210.536591,173.776993 210.890869,168.775909 
	C211.117661,165.574860 212.435272,164.933884 215.237915,164.935791 
	C218.036469,164.937698 219.106354,165.978378 219.035522,168.761261 
	C218.908707,173.744446 219.258621,178.749939 218.936783,183.715500 
	C218.500259,190.450272 216.459091,195.801788 204.679810,194.892792 
z"/>
<path fill="#FFFFFF" opacity="1.000000" stroke="none" 
	d="
M239.972748,212.000000 
	C242.348480,212.352554 245.161911,210.633301 245.118759,214.895294 
	C245.078812,218.841537 243.103333,219.266693 240.083069,219.010635 
	C239.258301,218.940720 238.418686,218.948364 237.592758,219.010986 
	C235.973618,219.133774 233.951187,218.186935 233.900131,221.377579 
	C233.852585,224.348862 235.483627,224.060638 237.348770,224.007324 
	C238.676788,223.969360 240.019852,224.119125 241.333054,223.974670 
	C243.895493,223.692810 245.099457,224.219864 245.133499,227.311646 
	C245.168610,230.499939 244.201767,231.273727 241.205551,231.064270 
	C237.402969,230.798431 233.562485,230.879532 229.748611,231.046036 
	C227.552841,231.141891 226.917938,230.433884 226.952271,228.249374 
	C227.074921,220.442856 227.117722,212.630493 226.935364,204.826309 
	C226.873093,202.160828 228.017548,201.887939 230.171371,201.962906 
	C233.987900,202.095764 237.816727,202.110245 241.631943,201.959732 
	C244.008575,201.865967 245.049118,202.279053 245.130737,205.107651 
	C245.225464,208.389725 243.423950,208.036819 241.411316,208.004684 
	C239.916458,207.980804 238.420334,207.973877 236.925858,208.007858 
	C235.522171,208.039764 233.908371,207.518005 233.944214,210.044556 
	C233.980530,212.603745 235.671280,211.895432 237.014099,211.989151 
	C237.840759,212.046844 238.674713,211.999939 239.972748,212.000000 
z"/>
<path fill="#FFFFFF" opacity="1.000000" stroke="none" 
	d="
M165.920441,180.280640 
	C164.069885,184.129959 165.076294,187.811874 165.098526,191.346252 
	C165.123322,195.286804 162.485367,193.774323 160.703262,193.970535 
	C158.428452,194.220993 156.611740,193.554184 157.083893,190.767456 
	C158.357330,183.251251 155.825272,176.757812 152.059662,170.486374 
	C151.214752,169.079224 148.538147,167.346939 151.024780,165.689346 
	C153.204559,164.236298 156.166702,164.105377 158.074448,166.645706 
	C159.401993,168.413467 160.281219,170.517929 161.510742,172.743546 
	C162.321594,171.258575 163.483582,169.925400 163.787201,168.419220 
	C164.567917,164.546036 167.333267,164.970886 170.102020,164.979813 
	C172.941589,164.988968 172.913422,166.471146 171.949493,168.386154 
	C170.012527,172.234344 167.994858,176.041901 165.920441,180.280640 
z"/>
<path fill="#000000" opacity="1.000000" stroke="none" 
	d="
M230.626617,176.984634 
	C227.712463,175.478821 228.631866,172.831070 229.463120,171.476730 
	C230.490311,169.803146 232.801971,171.514664 233.631973,172.388840 
	C237.244278,176.193375 232.064529,175.493469 230.626617,176.984634 
z"/>
<path fill="#000000" opacity="1.000000" stroke="none" 
	d="
M183.997772,214.999878 
	C182.283630,214.557434 179.929977,216.203201 180.008560,213.178833 
	C180.077347,210.531509 181.353851,208.389404 183.646622,207.385880 
	C184.195755,207.145523 187.116684,208.110855 186.894501,210.173828 
	C186.704422,211.938644 188.816559,215.253952 183.997772,214.999878 
z"/>
<path fill="#000000" opacity="1.000000" stroke="none" 
	d="
M181.627655,172.881561 
	C185.617661,171.029587 187.148407,172.356003 187.019577,176.197601 
	C186.920319,179.157150 186.992294,182.122635 187.000061,185.085464 
	C187.005432,187.135574 185.972061,188.030319 183.951813,188.009583 
	C181.908310,187.988617 180.946762,187.017075 180.999802,184.989365 
	C181.102737,181.053558 181.197372,177.117523 181.627655,172.881561 
z"/>
</svg>